<svg width="64" height="64" viewBox="0 0 64 64" version="1.1" xmlns="http://www.w3.org/2000/svg" xmlns:xlink="http://www.w3.org/1999/xlink" xmlns:figma="http://www.figma.com/figma/ns">
<title>Pencil_SK</title>
<desc>Created using Figma</desc>
<g id="Canvas" transform="translate(-268 -163)" figma:type="canvas">
<mask id="mask0_alpha" mask-type="alpha">
<path d="M 268 163L 332 163L 332 227L 268 227L 268 163Z" fill="#FFFFFF"/>
</mask>
<g id="Pencil_SK" style="mix-blend-mode:normal;" mask="url(#mask0_alpha)" figma:type="frame">
<path d="M 268 163L 332 163L 332 227L 268 227L 268 163Z" fill="#FFFFFF"/>
<g id="Vector" style="mix-blend-mode:normal;" filter="url(#filter0_d)" figma:type="vector">
<use xlink:href="#path0_fill" transform="matrix(-0.707107 -0.707107 0.707107 -0.707107 280.429 227.821)" fill="#232242" style="mix-blend-mode:normal;"/>
<use xlink:href="#path1_fill" transform="matrix(-0.707107 -0.707107 0.707107 -0.707107 280.429 227.821)" fill="#232242" style="mix-blend-mode:normal;"/>
<use xlink:href="#path2_fill" transform="matrix(-0.707107 -0.707107 0.707107 -0.707107 280.429 227.821)" fill="#232242" style="mix-blend-mode:normal;"/>
<use xlink:href="#path3_fill" transform="matrix(-0.707107 -0.707107 0.707107 -0.707107 280.429 227.821)" fill="#232242" style="mix-blend-mode:normal;"/>
<use xlink:href="#path4_stroke" transform="matrix(-0.707107 -0.707107 0.707107 -0.707107 280.429 227.821)" fill="#FFFFFF" style="mix-blend-mode:normal;"/>
</g>
</g>
</g>
<defs>
<filter id="filter0_d" filterUnits="userSpaceOnUse" x="269" y="166" width="62" height="61" color-interpolation-filters="sRGB">
<feFlood flood-opacity="0" result="BackgroundImageFix"/>
<desc>type="dropShadow" x="0" y="2" size="4" spread="0" color="0,0,0,0.25" blend="normal"</desc>
<feColorMatrix in="SourceAlpha" type="matrix" values="0 0 0 0 0 0 0 0 0 0 0 0 0 0 0 0 0 0 255 0"/>
<feOffset dx="0" dy="2"/>
<feGaussianBlur stdDeviation="2"/>
<feColorMatrix type="matrix" values="0 0 0 0 0 0 0 0 0 0 0 0 0 0 0 0 0 0 0.25 0"/>
<feBlend mode="normal" in2="BackgroundImageFix" result="effect1_dropShadow"/>
<feBlend mode="normal" in="SourceGraphic" in2="effect1_dropShadow" result="shape"/>
</filter>
<path id="path0_fill" d="M 13.7204 7.19055L 11.448 3.10191C 10.6911 1.73998 8.73644 1.72837 7.96339 3.08121L 5.7122 7.02077C 7.85425 9.16283 11.646 9.2649 13.7204 7.19055Z"/>
<path id="path1_fill" d="M 19.1817 17.0171L 0 17.0171L 0 58.1207L 19.1817 58.1207L 19.1817 17.0171Z"/>
<path id="path2_fill" d="M 0 58.1207C 1.57911e-06 72.6429 19.1817 72.2544 19.1817 58.1207L 0 58.1207Z"/>
<path id="path3_fill" d="M 0 17.0171L 19.1817 17.0171L 13.7204 7.19055C 11.646 9.2649 7.85425 9.16283 5.7122 7.02077L 0 17.0171Z"/>
<path id="path4_stroke" d="M 0 17.0171L -0.868242 16.5209L -1 16.7515L -1 17.0171L 0 17.0171ZM 0 58.1207L -1 58.1207L -1 58.1207L 0 58.1207ZM 19.1817 17.0171L 20.1817 17.0171L 20.1817 16.7579L 20.0557 16.5313L 19.1817 17.0171ZM 19.1817 58.1207L 20.1817 58.1207L 20.1817 58.1207L 19.1817 58.1207ZM 13.7204 7.19055L 14.5944 6.70477L 14.5944 6.70477L 13.7204 7.19055ZM 0 18.0171L 19.1817 18.0171L 19.1817 16.0171L 0 16.0171L 0 18.0171ZM -1 58.1207C -0.999999 65.9355 4.2468 69.9208 9.60096 69.8666C 14.9345 69.8126 20.1817 65.746 20.1817 58.1207L 18.1817 58.1207C 18.1817 64.6291 13.838 67.8236 9.58071 67.8667C 5.34404 67.9096 1 64.8281 1 58.1207L -1 58.1207ZM -1 17.0171L -1 58.1207L 1 58.1207L 1 17.0171L -1 17.0171ZM 0 59.1207L 19.1817 59.1207L 19.1817 57.1207L 0 57.1207L 0 59.1207ZM 18.1817 17.0171L 18.1817 58.1207L 20.1817 58.1207L 20.1817 17.0171L 18.1817 17.0171ZM 20.0557 16.5313L 14.5944 6.70477L 12.8463 7.67634L 18.3076 17.5029L 20.0557 16.5313ZM 14.5944 6.70477L 12.3221 2.61613L 10.5739 3.5877L 12.8463 7.67634L 14.5944 6.70477ZM 7.09514 2.58507L 4.84395 6.52463L 6.58044 7.51691L 8.83163 3.57735L 7.09514 2.58507ZM 4.84395 6.52463L -0.868242 16.5209L 0.868242 17.5132L 6.58044 7.51691L 4.84395 6.52463ZM 13.0133 6.48345C 11.3598 8.13691 8.2019 8.09626 6.4193 6.31367L 5.00509 7.72788C 7.50661 10.2294 11.9323 10.3929 14.4275 7.89766L 13.0133 6.48345ZM 12.3221 2.61613C 11.1867 0.573231 8.25472 0.555808 7.09514 2.58507L 8.83163 3.57735C 9.21815 2.90093 10.1955 2.90673 10.5739 3.5877L 12.3221 2.61613Z"/>
</defs>
</svg>
